<svg width="1295" height="531" viewBox="0 0 1295 531" fill="none" xmlns="http://www.w3.org/2000/svg">
<path fill-rule="evenodd" clip-rule="evenodd" d="M54.4795 277.843V115.291C68.0348 112.021 81.5901 108.751 95.1453 105.482C103.082 103.567 115.553 102.053 127.448 108.545C140.319 115.569 146.669 128.44 149.581 135.543C156.858 153.301 157.58 173.877 157.58 184.132C157.58 205.742 154.056 222.332 149.504 234.426C146.792 241.63 140.415 256.452 127.302 266.879C121.134 271.783 110.737 277.843 95.1453 277.843H54.4795ZM73.9145 251.069C80.9913 250.796 88.0685 250.523 95.1453 250.25C111.722 249.61 119.953 239.16 123.857 232.67C133.317 216.942 134.248 197.041 134.248 186.946C134.248 177.315 133.448 157.144 123.885 143.613C119.602 137.553 111.267 129.809 95.1453 133.075C88.0685 134.509 80.9913 135.942 73.9145 137.376V251.069Z" fill="white"/>
<path fill-rule="evenodd" clip-rule="evenodd" d="M227.536 280.212C204.435 280.212 196.897 272.346 195.676 271.397C183.803 262.176 178.61 248.7 177.464 245.755C171.241 229.751 171.131 212.13 171.131 207.107C171.131 201.296 171.36 184.11 177.412 167.359C178.666 163.889 183.819 149.725 195.642 138.57C200.423 134.059 209.708 126.736 224.453 124.049C232.226 122.633 243.771 122.013 254.638 128.439C267.189 135.86 273.009 148.836 275.042 153.718C282.242 171.017 282.419 191.129 282.419 197.275C282.419 204.195 282.109 223.645 275.045 242.017C273.203 246.808 267.346 261.293 254.552 271.076C241.437 281.104 229.406 280.212 227.536 280.212ZM224.347 248.276C237.023 247.832 243.396 239.993 246.504 234.895C254.358 222.011 254.477 204.514 254.477 199.662C254.477 194.378 254.308 177.067 246.504 165.866C243.18 161.094 236.745 154.87 224.347 156.651C211.997 158.424 205.855 166.401 202.845 171.559C195.435 184.257 195.432 200.864 195.432 204.899C195.432 209.112 195.457 225.574 202.845 237.06C205.92 241.841 212.082 248.706 224.347 248.276Z" fill="white"/>
<path fill-rule="evenodd" clip-rule="evenodd" d="M310.908 277.843V152.866C306.01 153.524 301.112 154.182 296.215 154.84V114.243C306.385 112.426 316.555 110.608 326.725 108.791V135.87C329.595 135.44 332.465 135.009 335.334 134.579C336.685 131.542 342.343 118.864 353.474 108.921C361.259 101.967 370.991 97.6379 381.546 95.7173C399.444 92.4609 413.878 96.7788 424.206 109.038C438.704 126.245 439.98 151.468 439.98 163.743V277.843H405.743V175.811C405.743 171.373 405.723 154.09 397.241 144.017C390.204 135.661 380.236 135.283 372.843 136.338C359.549 138.233 352.765 145.152 349.21 150.34C341.377 161.77 341.243 177.561 341.243 182.231V277.843H310.908Z" fill="white"/>
<path fill-rule="evenodd" clip-rule="evenodd" d="M456.631 116.768V18.2894C466.13 15.998 475.629 13.7069 485.128 11.4155V112.503C475.629 113.925 466.13 115.347 456.631 116.768Z" fill="white"/>
<path fill-rule="evenodd" clip-rule="evenodd" d="M570.591 277.843C561.05 277.843 552.449 274.883 546.275 267.41C537.892 257.262 537.755 240.954 537.755 235.996V111.059C528.717 112.362 519.678 113.664 510.641 114.967V75.9307C519.818 74.291 528.995 72.6512 538.173 71.0115V8.96194C551.034 5.97473 563.895 2.98753 576.756 0V64.1176C589.973 61.7563 603.191 59.3947 616.408 57.033V99.7229C603.335 101.607 590.263 103.491 577.19 105.375V236.229C591.641 235.727 606.092 235.224 620.542 234.722V277.843H570.591Z" fill="white"/>
<path fill-rule="evenodd" clip-rule="evenodd" d="M705.084 275.657V83.7855L682.338 79.7502V15.0908L728.526 25.9876V65.979L741.763 68.6015C742.813 66.281 750.494 49.3028 764.987 41.3528C770.944 38.0852 782.488 34.374 799.625 38.4905C819.014 43.1487 830.79 54.52 832.592 56.2608C845.869 69.0795 852.791 87.2274 853.854 90.0137L854.782 90.2001C854.819 90.1293 868.526 55.0445 905.967 64.04C934.369 70.8634 946.917 93.8196 948.295 96.1229C963.146 120.984 963.146 152.799 963.146 157.77V275.657H929.161V161.9C929.161 159.519 931.603 114.623 896.812 108.07C863.138 101.73 863.138 149.275 863.138 153.145V275.657H824.329V147.996C824.329 143.794 826.675 94.8635 787.113 87.4138C767.896 83.7959 760.119 94.841 758.897 96.4369C749.149 109.145 749.149 134.672 749.149 138.024V275.657H705.084Z" fill="white"/>
<path fill-rule="evenodd" clip-rule="evenodd" d="M993.837 275.657V88.5802L1024.72 95.8658V275.657H993.837ZM1009.37 72.0676C1002.06 70.1543 997.469 62.1663 996.909 61.1967C996.021 59.6475 991.707 52.1427 991.707 41.1821C991.707 39.8088 991.707 30.2215 996.909 24.2365C997.379 23.6983 1002.06 18.3155 1009.37 20.7119C1016.57 23.0738 1021.03 31.0875 1021.58 32.0899C1022.42 33.5909 1026.54 41.0095 1026.54 51.4542C1026.54 52.7861 1026.54 61.9008 1021.58 67.8943C1021.12 68.4533 1016.57 73.9551 1009.37 72.0676Z" fill="white"/>
<path fill-rule="evenodd" clip-rule="evenodd" d="M1096.27 278.026C1094.42 278.026 1076.85 279.349 1062.63 263.564C1048.26 247.618 1047.17 222.65 1047.01 219.029L1074.49 221.132C1074.66 222.753 1075.9 234.399 1082.46 240.991C1088.92 247.483 1099.3 247.903 1101.14 247.977C1122.4 248.834 1120.88 232.051 1120.88 231.275C1120.88 224.165 1118.53 220.75 1117.94 219.884C1114.97 215.578 1109.03 213.337 1107.95 212.93L1084.36 203.784C1049.19 189.953 1051.4 154.076 1051.4 152.475C1051.4 149.514 1051.4 127.726 1064.22 116.082C1073.67 107.494 1086.5 107.135 1097.99 109.901C1118.53 114.842 1128.78 128.98 1130.24 130.999C1141.61 146.681 1142.66 167.29 1142.83 170.49L1119.02 166.603C1117.26 154.625 1113.12 149.573 1111.99 148.191C1111.29 147.332 1106.65 141.671 1096.62 139.696C1095.55 139.484 1087.57 137.912 1082.65 141.335C1077.68 144.798 1077.68 152.447 1077.68 153.438C1077.68 159.857 1080.24 163.506 1080.82 164.334C1083.93 168.786 1089.48 171.222 1090.53 171.682L1114.2 182.051C1116.77 183.176 1129.73 188.85 1136.82 200.448C1143.79 211.865 1143.79 227.429 1143.79 229.796C1143.79 232.696 1143.79 252.811 1132.89 265.616C1129.72 269.336 1123.01 278.026 1096.27 278.026Z" fill="white"/>
<path fill-rule="evenodd" clip-rule="evenodd" d="M1194.79 278.026C1194.01 278.026 1178.82 278.907 1167.28 265.312C1155.71 251.671 1154.83 230.36 1154.7 227.272L1176.83 228.966C1176.97 230.348 1177.96 240.317 1183.23 245.95C1188.43 251.5 1196.72 251.835 1198.23 251.895C1214.05 252.535 1214.05 238.812 1214.05 237.484C1214.05 231.368 1212.17 228.45 1211.69 227.702C1209.32 224.013 1204.58 222.127 1203.69 221.776L1184.76 214.057C1156.34 202.328 1158.24 171.412 1158.24 170.371C1158.24 167.835 1158.24 149.239 1168.56 139.127C1170.43 137.295 1178.6 129.298 1195.7 133.414C1212.18 137.379 1220.39 149.439 1221.53 151.114C1230.62 164.455 1231.47 182.246 1231.6 184.988L1212.56 181.877C1211.14 171.593 1207.84 167.314 1206.93 166.124C1206.38 165.411 1202.66 160.582 1194.61 158.997C1187.34 157.566 1183.92 160.153 1183.39 160.551C1179.39 163.57 1179.39 170.119 1179.39 170.968C1179.39 176.465 1181.44 179.565 1181.91 180.276C1184.42 184.063 1188.86 186.1 1189.72 186.494L1208.7 195.203C1210.8 196.171 1221.13 200.917 1226.79 210.858C1232.37 220.644 1232.37 234.08 1232.37 236.112C1232.37 238.611 1232.37 255.977 1223.66 267.008C1222.57 268.389 1214.95 278.026 1194.79 278.026Z" fill="white"/>
<path fill-rule="evenodd" clip-rule="evenodd" d="M0 497.484C3.39495 487.856 6.78806 478.227 10.183 468.598L33.6478 473.065C39.9814 463.493 46.3149 453.922 52.6485 444.351C53.022 390.396 54.4039 341.686 55.4694 308.115L80.2939 308.287C79.981 324.106 79.2763 362.04 79.2119 404.568L79.9884 404.652C100.342 372.718 120.695 340.783 141.048 308.85L168.423 309.163C142.842 349.542 109.768 401.756 79.0444 449.18C72.6409 459.077 66.2357 468.975 59.8303 478.873C58.7539 480.52 51.1543 492.147 43.3965 498.894C42.3495 499.803 35.9662 505.678 24.5117 503.067L0 497.484Z" fill="white"/>
<path fill-rule="evenodd" clip-rule="evenodd" d="M198.957 471.983C177.717 468.45 167.337 457.37 165.4 455.359C153.152 442.642 150.383 425.782 149.948 423.138C146.842 404.227 152.331 383.79 153.242 380.4C154.109 377.173 159.449 357.29 171.52 340.763C173.098 338.6 183.416 324.472 199.64 315.746C202.902 313.992 216.134 306.926 235.209 307.157C254.702 307.394 264.95 314.852 267.912 317.108C281.067 327.126 285.522 343.475 286.175 345.871C291.442 365.2 287.568 388.258 286.952 391.929C286.315 395.715 282.355 419.291 270.006 438.626C268.555 440.901 258.127 457.975 239.003 467.009C225.51 473.383 211.137 474.01 198.957 471.983ZM206.651 435.258C225.289 437.714 235.702 425.986 236.66 425.011C248.952 412.492 252.929 391.826 253.497 388.868C254.055 385.973 257.958 365.686 251.122 352.513C250.376 351.075 245.173 339.724 227.762 339.001C210.719 338.293 200.963 348.527 199.62 349.842C187.806 361.409 183.217 380.071 182.551 382.776C181.852 385.623 177.158 404.706 183.175 418.643C183.675 419.804 188.439 432.859 206.651 435.258Z" fill="white"/>
<path fill-rule="evenodd" clip-rule="evenodd" d="M363.146 499.425C329.843 493.715 318.342 472.758 316.769 470.14C302.944 447.127 307.184 419.609 308.045 413.797C313.687 375.696 319.299 339.983 323.96 311.521C335.315 311.731 346.67 311.94 358.023 312.149C354.321 338.955 349.789 373.242 345.386 408.674C345.051 411.36 342.727 430.07 350.553 442.225C351.681 443.976 358.123 454.592 377.026 457.196C397.033 459.953 406.638 450.696 408.561 448.892C420.297 437.878 421.757 418.051 421.959 415.312C422.506 407.882 425.786 363.219 430.015 313.583C442.678 313.853 455.344 314.123 468.007 314.394C464.34 377.579 461.753 433.833 460.621 459.119L481.922 461.965C481.381 479.841 480.84 497.717 480.299 515.594C465.442 513.054 450.585 510.514 435.728 507.974C436.347 496.737 436.965 485.5 437.585 474.264L425.871 472.555C424.528 474.606 415.094 489.006 399.937 496.116C385.109 503.072 367.662 500.199 363.146 499.425Z" fill="white"/>
<path fill-rule="evenodd" clip-rule="evenodd" d="M520.27 522.464C520.473 492.457 520.947 431.645 522.07 363.095L501.336 361.861C501.829 346.296 502.324 330.731 502.817 315.166C516.715 315.486 530.613 315.806 544.512 316.127C544.46 328.612 544.409 341.097 544.357 353.583L556.367 354.212C557.284 351.583 562.725 334.988 577.972 324.963C580.781 323.116 592.858 315.171 612.278 315.621L627.076 315.966C627.801 330.752 628.526 345.538 629.251 360.325L611.965 359.362C587.133 357.986 577.731 371.016 575.97 373.325C563.904 389.14 564.524 412.029 564.572 415.834C565.148 454.027 565.724 492.222 566.3 530.415C550.957 527.764 535.615 525.114 520.27 522.464Z" fill="white"/>
<path fill-rule="evenodd" clip-rule="evenodd" d="M758.886 523.604C745.853 526.081 732.937 524.14 721.999 517.143C705.681 506.704 697.323 487.064 696.093 484.171C686.683 462.06 686.019 435.261 685.912 430.967C685.809 426.803 685.169 401.012 692.794 379.15C693.769 376.361 700.156 358.049 714.018 346.559C724.992 337.463 737.987 335.184 745.806 334.982C767.747 334.414 780.646 346.066 784.105 349.27C800.217 364.194 806.378 388.355 807.297 391.957L778.15 394.362C777.648 392.79 774.179 381.905 766.736 375.931C759.293 369.954 749.991 370.511 748.412 370.606C733.549 371.495 726.354 384.232 725.413 385.895C717.026 400.743 718.105 424.096 718.258 427.443C718.416 430.831 719.529 454.925 729.842 469.002C730.971 470.546 739.6 483.277 756.054 480.715C782.588 476.584 783.316 446.008 783.395 445.086L813.468 441.232C813.432 445.692 813.205 474.422 799.417 496.073C797.341 499.331 785.564 518.538 758.886 523.604Z" fill="white"/>
<path fill-rule="evenodd" clip-rule="evenodd" d="M836.969 504.951C833.489 474.751 822.089 376.421 808.287 278.839L833.763 279.733C834.8 285.958 839.955 316.905 846.178 357.575L846.892 357.539C847.31 355.93 850.134 345.069 857.806 338.628C858.908 337.705 865.309 332.329 876.969 332.072C896.055 331.65 907.705 344.489 909.989 346.94C924.417 362.418 929.441 385.928 930.201 389.479C931.818 397.042 939.832 434.544 949.559 484.1L922.824 489.035C914.518 441.816 907.667 405.825 906.291 398.595C905.873 396.398 902.911 380.844 894.634 372.138C886.412 363.492 875.674 364.099 873.79 364.206C871.929 364.311 861.017 364.929 855.721 374.716C850.303 384.732 852.735 401.33 853.072 403.636C854.194 411.298 859.775 449.401 866.552 499.456L836.969 504.951Z" fill="white"/>
<path fill-rule="evenodd" clip-rule="evenodd" d="M1005.6 476.805C988.111 480.067 977.447 470.276 975.152 468.186C962.188 456.376 958.012 437.299 957.389 434.452C956.782 431.681 952.511 412.165 959.735 399.442C964.67 390.748 973.797 386.533 984.554 385.632L1012.2 383.336L1010.64 377.955C1010.2 376.456 1005 354.122 984.74 355.095C967.522 355.923 969.213 371.784 969.309 373.531L945.739 375.177C945.464 372.451 943.474 352.833 951.938 341.292C957.353 333.906 966.261 330.038 977.653 329.836C996.209 329.507 1007.18 338.632 1010.4 341.425C1024.25 353.469 1030.72 374.213 1031.66 377.251C1032.95 381.361 1039.46 402.248 1047.3 428.706L1057.62 427.273C1058.48 430.077 1062.9 444.494 1068.2 462.349L1045.14 466.555L1038.57 443.018L1032.17 444.01C1031.99 445.802 1030.81 457.25 1024.41 465.784C1017.87 474.514 1007.48 476.453 1005.6 476.805ZM1001.9 446.738C1003.14 446.547 1009.71 445.537 1014.65 440.04C1015.51 439.086 1019.52 434.634 1020.9 426.576C1021.13 425.23 1022.26 418.643 1019.73 409.648L1018.77 406.264L991.918 409.23C974.851 411.126 980.089 428.405 980.362 429.538C980.643 430.717 982.574 438.785 988.326 443.36C994.083 447.938 1000.78 446.91 1001.9 446.738Z" fill="white"/>
<path fill-rule="evenodd" clip-rule="evenodd" d="M1086.06 459.099C1069.74 407.1 1056.37 368.305 1053.65 360.432L1043.45 360.998C1042.65 358.617 1038.39 345.862 1033.35 331.266L1053.76 330.914L1060.49 349.423L1066.04 349.199C1066.14 347.927 1066.81 339.176 1071.66 333.792C1072.36 333.013 1076.4 328.521 1086.06 328.406C1100.94 328.229 1112.59 338.697 1114.21 340.153C1127.62 352.214 1135.19 370.196 1136.37 372.989C1138.77 378.713 1150.88 407.488 1165.63 444.724L1146.85 448.102C1133.52 412.614 1122.55 385.098 1120.37 379.634C1119.69 377.916 1114.97 366.075 1107.42 359.317C1106.48 358.475 1099.93 352.609 1090.76 353.024C1089.48 353.082 1081.48 353.442 1079.22 360.861C1076.91 368.421 1081.45 381.122 1082.06 382.833C1084.13 388.617 1094.5 417.647 1107.09 455.284L1086.06 459.099Z" fill="white"/>
<path fill-rule="evenodd" clip-rule="evenodd" d="M1215.2 438.381C1204.71 440.285 1194.85 434.865 1193.42 434.078C1182.07 427.829 1172.97 416.392 1171.6 414.659C1169.73 412.317 1161.36 401.791 1153.51 383.557C1152.49 381.186 1145.94 365.943 1144.78 353.194C1144.64 351.655 1143.66 340.768 1148.41 334.098C1153.04 327.601 1161.66 327.552 1163.04 327.543C1175.17 327.474 1186.17 335.567 1187.72 336.707C1200.27 345.947 1209.54 360.47 1210.97 362.715L1195.65 363.611C1190.43 356.134 1185.98 353.185 1184.87 352.446C1184.14 351.964 1179.3 348.755 1173.47 348.971C1165.52 349.269 1164.65 356.833 1164.56 357.694C1163.57 366.308 1169.8 380.157 1170.65 382.042C1171.57 384.098 1177.9 398.156 1186.81 406.458C1187.77 407.359 1195.8 414.841 1203.95 413.699C1216.63 411.924 1211.18 395.155 1210.66 393.539L1226.14 391.876C1227.1 394.313 1233.77 411.145 1231.17 423.326C1230.85 424.817 1228.48 435.969 1215.2 438.381Z" fill="white"/>
<path fill-rule="evenodd" clip-rule="evenodd" d="M1282.08 426.322C1272.93 427.958 1263.89 423.136 1262.59 422.446C1252.15 416.879 1243.34 406.628 1242.01 405.076C1240.2 402.974 1232.06 393.503 1223.67 377.183C1222.58 375.07 1215.55 361.374 1213.41 350.028C1213.15 348.683 1211.32 338.962 1214.85 333.094C1218.3 327.368 1225.81 327.373 1226.98 327.373C1235.23 327.38 1242.95 331.902 1244.09 332.576C1245.77 333.557 1252.87 337.722 1261.57 347.299C1263.17 349.054 1270.36 356.966 1278.31 370.553L1282.94 378.475C1279.58 378.762 1262.65 380.208 1240.94 382.183C1241.89 383.778 1248.41 394.686 1256.25 400.921C1257.13 401.625 1264.1 407.172 1271.05 406.216C1271.75 406.119 1276.15 405.513 1277.44 401.777C1278.72 398.093 1276.54 392.163 1276.24 391.355L1289.36 389.921C1290.22 391.814 1296.26 405.012 1294.51 414.538C1294.29 415.706 1292.69 424.426 1282.08 426.322ZM1232.54 365.687L1261.59 363.935C1255.51 354.588 1250.5 350.785 1249.22 349.814C1248.46 349.239 1242.92 345.037 1236.97 345.198C1230.97 345.362 1229.92 349.966 1229.79 350.549C1228.59 355.828 1232.07 364.514 1232.54 365.687Z" fill="white"/>
</svg>
