<svg width="1350" height="361" viewBox="0 0 1350 361" fill="none" xmlns="http://www.w3.org/2000/svg">
<path d="M1190.37 359.204H988.651L1085.5 238.014H1287.22L1267.61 262.551H1129.1L1111.64 284.396H1238.05L1218.92 308.334H1092.51L1071.47 334.667H1209.98L1190.37 359.204Z" fill="black"/>
<path d="M612.002 359.204L708.851 238.014H793.909L804.846 319.406H806.191L946.88 238.014H1031.6L934.753 359.204H871.548L935.875 278.71H934.53L798.593 359.204H744.128L736.844 278.71H735.5L671.173 359.204H612.002Z" fill="black"/>
<path d="M291.24 359.204L502.733 238.014H566.611L583.061 359.204H518.175L514.288 331.675H402.333L354.109 359.204H291.24ZM440.821 308.334H516.13L511.528 268.237H509.847L440.821 308.334Z" fill="black"/>
<path d="M134.143 361C107.695 361 86.4579 358.407 70.4308 353.22C54.4835 347.934 44.5409 340.602 40.603 331.226C36.8892 321.85 39.9345 311.028 49.739 298.759C59.7826 286.192 74.3783 275.22 93.526 265.844C112.674 256.467 134.854 249.186 160.068 243.999C185.506 238.813 212.233 236.219 240.249 236.219C263.335 236.219 282.296 238.015 297.133 241.605C312.05 245.097 322.481 250.134 328.427 256.717C334.373 263.3 335.136 271.18 330.716 280.356H264.821C267.442 274.272 264.84 269.534 257.016 266.143C249.192 262.751 236.987 261.056 220.401 261.056C204.712 261.056 189.804 262.602 175.678 265.694C161.552 268.786 149.08 273.175 138.26 278.86C127.441 284.546 118.923 291.278 112.705 299.059C106.408 306.938 104.198 313.771 106.075 319.556C107.951 325.341 113.554 329.83 122.882 333.022C132.29 336.114 145.063 337.66 161.2 337.66C173.079 337.66 184.251 336.862 194.716 335.266C205.485 333.57 214.675 331.326 222.286 328.533C229.977 325.641 235.257 322.399 238.127 318.808L240.996 315.217H174.092L191.31 293.672H275.696C290.489 293.672 300.308 295.268 305.154 298.46C310.079 301.552 310.031 306.24 305.009 312.524L267.704 359.205H209.878L220.161 346.338H218.48C208.074 351.225 195.823 354.916 181.727 357.409C167.711 359.803 151.85 361 134.143 361Z" fill="black"/>
<path d="M1180.27 229.358L1134.19 130.954H1171.63L1208.39 209.434H1289.65L1298.98 229.358H1180.27Z" fill="black"/>
<path d="M990.249 229.358L1012.08 130.954H1049.92L1163.13 229.358H1124.69L1098.88 207.005H1032.56L1027.49 229.358H990.249ZM1035.44 188.053H1080.05L1043.09 155.494H1042.1L1035.44 188.053Z" fill="black"/>
<path d="M934.528 229.358L888.442 130.954H925.886L971.972 229.358H934.528Z" fill="black"/>
<path d="M841.981 231.301C825.384 231.301 809.943 229.236 795.66 225.105C781.339 220.894 769.01 214.981 758.673 207.368C748.298 199.674 740.702 190.684 735.884 180.398C731.029 170.031 730.205 161.041 733.411 153.428C736.617 145.815 743.428 139.943 753.842 135.812C764.218 131.601 777.705 129.495 794.302 129.495C807.846 129.495 820.545 130.953 832.4 133.868C844.218 136.703 854.697 140.793 863.84 146.139C872.982 151.484 880.161 157.882 885.377 165.334H846.34C842.698 160.393 837.046 156.546 829.383 153.792C821.852 151.039 813.307 149.662 803.747 149.662C789.938 149.662 780.254 152.375 774.696 157.801C769.27 163.228 768.815 170.76 773.328 180.398C777.842 190.036 785.353 197.568 795.861 202.995C806.502 208.421 818.727 211.134 832.536 211.134C842.097 211.134 849.352 209.758 854.303 207.004C859.387 204.25 861.436 200.403 860.45 195.463H899.487C901.213 202.833 900.027 209.231 895.929 214.657C891.794 220.003 885.164 224.134 876.04 227.049C866.877 229.884 855.525 231.301 841.981 231.301Z" fill="black"/>
<path d="M659.13 230.815C642.533 230.815 627.026 228.75 612.61 224.619C598.289 220.408 585.913 214.536 575.481 207.004C565.011 199.391 557.367 190.441 552.55 180.155C547.695 169.788 546.956 160.839 550.333 153.306C553.672 145.693 560.548 139.821 570.962 135.691C581.509 131.56 595.082 129.495 611.679 129.495C628.409 129.495 643.916 131.56 658.199 135.691C672.577 139.74 684.935 145.572 695.272 153.185C705.704 160.717 713.367 169.707 718.26 180.155C723.077 190.441 723.816 199.391 720.477 207.004C717.138 214.617 710.195 220.489 699.648 224.619C689.234 228.75 675.728 230.815 659.13 230.815ZM649.999 210.891C664.472 210.891 674.317 208.097 679.533 202.509C684.75 196.92 685.178 189.469 680.816 180.155C676.416 170.76 669.009 163.309 658.596 157.801C648.144 152.213 635.616 149.419 621.01 149.419C606.537 149.419 596.626 152.213 591.276 157.801C586.021 163.309 585.575 170.72 589.937 180.034C594.337 189.429 601.762 196.92 612.214 202.509C622.798 208.097 635.393 210.891 649.999 210.891Z" fill="black"/>
<path d="M493.726 230.815C471.685 230.815 452.726 227.9 436.85 222.068C421.068 216.156 410.114 207.935 403.988 197.406H442.229C446.079 202.509 451.713 206.315 459.129 208.826C466.546 211.337 475.698 212.592 486.586 212.592C496.412 212.592 503.297 211.701 507.243 209.919C511.284 208.057 512.45 205.303 510.743 201.658C509.416 198.824 506.865 196.637 503.09 195.098C499.41 193.478 493.91 192.223 486.588 191.332L450.481 186.958C434.131 184.934 421.175 181.653 411.615 177.118C402.056 172.582 395.55 166.63 392.098 159.259C387.736 149.945 390.098 142.656 399.185 137.392C408.404 132.127 423.038 129.495 443.088 129.495C463.271 129.495 480.826 132.249 495.754 137.756C510.682 143.264 521.123 150.958 527.079 160.839H488.838C480.796 151.606 467.547 146.989 449.09 146.989C440.991 146.989 435.035 147.88 431.222 149.662C427.371 151.363 426.204 153.833 427.721 157.073C429.997 161.932 437.186 165.091 449.288 166.549L487.045 171.044C504.059 173.068 517.299 176.389 526.764 181.006C536.229 185.622 542.82 191.899 546.537 199.836C551.127 209.636 548.85 217.249 539.707 222.676C530.696 228.102 515.369 230.815 493.726 230.815Z" fill="black"/>
<path d="M321.75 227.897L298.93 129.493H311.893L380.971 227.897H367.803L352.081 205.544H329.361L334.508 227.897H321.75ZM324.511 186.592H339.794L317.109 154.033H316.768L324.511 186.592Z" fill="black"/>
<path d="M271.536 229.354C265.85 229.354 259.903 227.289 253.692 223.158C247.49 218.947 241.442 213.075 235.55 205.543C229.619 197.929 224.245 188.98 219.428 178.694C214.573 168.327 211.564 159.378 210.402 151.845C209.201 144.232 209.749 138.36 212.045 134.23C214.386 130.099 218.399 128.034 224.085 128.034C229.816 128.034 235.764 130.099 241.928 134.23C248.1 138.279 254.129 144.111 260.014 151.724C265.907 159.256 271.3 168.246 276.193 178.694C281.01 188.98 284.019 197.929 285.219 205.543C286.419 213.156 285.849 219.028 283.508 223.158C281.212 227.289 277.222 229.354 271.536 229.354ZM262.273 209.43C267.231 209.43 269.743 206.636 269.81 201.048C269.876 195.459 267.728 188.008 263.366 178.694C258.966 169.299 254.135 161.848 248.872 156.34C243.571 150.752 238.419 147.958 233.416 147.958C228.458 147.958 225.923 150.752 225.811 156.34C225.707 161.848 227.836 169.258 232.198 178.573C236.598 187.968 241.448 195.459 246.749 201.048C252.095 206.636 257.27 209.43 262.273 209.43Z" fill="black"/>
<path d="M224.615 227.897H212.061L175.306 149.416H157.976L148.646 129.493H195.859L205.19 149.416H187.86L224.615 227.897Z" fill="black"/>
<path d="M187.647 227.897H174.07L116.828 163.509H116.556L146.71 227.897H134.429L88.3438 129.493H101.375L160.016 195.703H160.288L129.28 129.493H141.561L187.647 227.897Z" fill="black"/>
<path d="M110.293 227.897L64.207 129.493H77.0338L123.119 227.897H110.293Z" fill="black"/>
<path d="M1184.64 122.413C1173.57 122.413 1168.51 118.891 1169.45 111.845C1170.57 104.702 1177.64 94.77 1190.66 82.0492H1209.86C1204 88.2139 1201.01 92.8129 1200.89 95.8464C1200.78 98.8798 1203.45 100.396 1208.92 100.396C1213.86 100.396 1218.68 99.3201 1223.38 97.1673C1228.26 94.9167 1233.06 91.5898 1237.77 87.1864C1241.44 83.7616 1243.5 81.1196 1243.96 79.2604C1244.59 77.3033 1243.75 75.7866 1241.43 74.7102L1229.98 69.4262C1224.87 66.9799 1223.38 63.0169 1225.51 57.5372C1227.64 52.0574 1233.48 44.8653 1243.01 35.9607C1255.07 24.7077 1267.4 15.901 1280.01 9.5406C1292.69 3.1802 1304.07 0 1314.14 0C1324.27 0 1328.88 3.32698 1327.95 9.98093C1327.03 16.6349 1320.51 25.9309 1308.39 37.8688H1289.19C1299.27 26.7137 1299.67 21.1361 1290.4 21.1361C1286.33 21.1361 1281.98 22.2125 1277.34 24.3652C1272.8 26.4201 1268.44 29.4046 1264.25 33.3187C1257.96 39.1899 1256.74 43.0061 1260.59 44.7674L1272.68 50.1982C1278.13 52.6446 1279.7 56.6565 1277.4 62.2341C1275.09 67.8116 1268.81 75.3952 1258.54 84.9847C1245.86 96.8249 1233.07 106.023 1220.18 112.579C1207.36 119.135 1195.52 122.413 1184.64 122.413Z" fill="black"/>
<path d="M1137.53 120.651H1117.63L1161.22 42.858H1160.82L1077.51 120.651H1059.51L1186.83 1.76001H1205.93L1160.78 81.7543H1161.18L1246.85 1.76001H1264.85L1137.53 120.651Z" fill="black"/>
<path d="M1003.61 122.413C995.275 122.413 990.644 119.918 989.72 114.928C988.967 109.839 991.729 102.745 998.007 93.6447C1004.39 84.4466 1014.23 73.6339 1027.54 61.2066C1040.96 48.6815 1054.27 37.8688 1067.48 28.7686C1080.8 19.5705 1093.23 12.4762 1104.78 7.48569C1116.39 2.49523 1126.37 0 1134.7 0C1143.1 0 1147.73 2.49523 1148.59 7.48569C1149.62 12.3783 1146.91 19.4237 1140.46 28.6218C1134.19 37.7221 1124.29 48.5837 1110.77 61.2066C1097.46 73.6339 1084.15 84.4466 1070.83 93.6447C1057.51 102.843 1045.05 109.937 1033.43 114.928C1021.89 119.918 1011.95 122.413 1003.61 122.413ZM1029.49 98.3416C1036.76 98.3416 1045.97 94.9657 1057.14 88.2139C1068.31 81.4621 1079.91 72.4596 1091.96 61.2066C1104.12 49.8558 1111.79 40.8533 1114.98 34.1994C1118.28 27.4476 1116.26 24.0717 1108.92 24.0717C1101.65 24.0717 1092.4 27.4476 1081.17 34.1994C1070.11 40.8533 1058.56 49.8068 1046.51 61.0598C1034.35 72.4107 1026.62 81.4621 1023.33 88.2139C1020.1 94.9657 1022.15 98.3416 1029.49 98.3416Z" fill="black"/>
<path d="M932.097 120.651L1059.42 1.76001H1078.22L950.903 120.651H932.097Z" fill="black"/>
<path d="M895.739 120.651H877.333L978.874 25.8317H953.465L979.243 1.76001H1048.47L1022.69 25.8317H997.28L895.739 120.651Z" fill="black"/>
<path d="M811.721 123C803.385 123 798.788 120.505 797.93 115.515C797.177 110.426 800.025 103.283 806.474 94.085C813.028 84.789 822.959 73.9274 836.267 61.5002C849.68 48.9751 863.012 38.1135 876.264 28.9153C889.515 19.7172 901.914 12.6229 913.46 7.63247C925.111 2.54416 935.104 0 943.441 0C950.243 0 954.392 1.76134 955.888 5.28402C957.489 8.70885 956.498 13.6504 952.917 20.1087C949.335 26.5669 943.157 34.2972 934.384 43.2996H914.777C920.503 37.3307 923.546 32.6827 923.908 29.3557C924.336 26.0287 922.15 24.3652 917.348 24.3652C910.413 24.3652 901.4 27.6433 890.311 34.1994C879.289 40.7555 867.543 49.8558 855.073 61.5002C842.603 73.1446 834.859 82.2449 831.839 88.801C828.886 95.3571 830.878 98.6351 837.813 98.6351C842.615 98.6351 848.364 96.9716 855.062 93.6447C861.825 90.3177 868.737 85.6697 875.796 79.7007H895.402C885 88.6053 874.621 96.3356 864.265 102.892C854.015 109.35 844.369 114.34 835.328 117.863C826.392 121.288 818.523 123 811.721 123Z" fill="black"/>
<path d="M741.137 120.651L868.455 1.76001H887.261L759.943 120.651H741.137Z" fill="black"/>
<path d="M652.499 120.651L779.817 1.76001H812.628C821.431 1.76001 826.466 4.1574 827.734 8.95216C829.001 13.7469 826.601 20.5966 820.533 29.5011C814.465 38.4057 804.882 48.9738 791.783 61.2053C778.789 73.339 765.757 83.8581 752.687 92.7626C739.683 101.667 727.361 108.566 715.719 113.458C704.182 118.253 694.046 120.651 685.31 120.651H652.499ZM696.455 97.166H710.459C718.395 97.166 727.926 93.839 739.053 87.1851C750.247 80.5311 761.555 71.8712 772.977 61.2053C784.504 50.4415 791.743 41.7816 794.696 35.2255C797.821 28.5715 795.415 25.2446 787.479 25.2446H773.474L696.455 97.166Z" fill="black"/>
<path d="M639.488 120.651H579.468L706.786 1.76001H766.806L741.028 25.8317H699.814L676.866 47.2613H714.478L689.329 70.7459H651.716L624.052 96.5789H665.266L639.488 120.651Z" fill="black"/>
<path d="M493.423 120.651L620.741 1.76001H663.755C672.492 1.76001 676.236 4.64666 674.988 10.4199C673.807 16.1932 667.873 24.0703 657.184 34.0513C650.059 40.7052 642.933 46.3317 635.807 50.9308C628.853 55.432 622.618 58.5143 617.102 60.1778L616.473 60.765C620.341 60.765 621.632 62.3306 620.346 65.4619C619.232 68.4953 615.374 73.0943 608.772 79.259L564.446 120.651H545.64L592.795 76.617H559.384L512.229 120.651H493.423ZM585.162 52.5453H608.17C611.637 52.5453 615.562 51.3711 619.945 49.0227C624.327 46.6742 628.771 43.3962 633.277 39.1885C637.888 34.883 640.464 31.605 641.007 29.3544C641.655 27.0059 640.245 25.8317 636.777 25.8317H613.769L585.162 52.5453Z" fill="black"/>
<path d="M414.413 120.651L541.731 1.76001H581.044C590.181 1.76001 593.649 5.18484 591.449 12.0345C589.353 18.7863 581.913 28.1312 569.129 40.0692C556.45 51.9093 543.875 61.2542 531.405 68.1039C518.934 74.9535 508.131 78.3784 498.995 78.3784H478.488L433.219 120.651H414.413ZM504.266 54.3067H523.572C527.307 54.3067 531.451 53.0835 536.005 50.6372C540.73 48.0931 545.503 44.5704 550.323 40.0692C555.248 35.4701 558.02 31.9475 558.639 29.5011C559.325 27.0548 557.801 25.8317 554.066 25.8317H534.76L504.266 54.3067Z" fill="black"/>
<path d="M370.406 120.651H350.499L394.093 42.858H393.693L310.386 120.651H292.38L419.698 1.76001H438.805L393.653 81.7543H394.053L479.718 1.76001H497.724L370.406 120.651Z" fill="black"/>
<path d="M206.336 120.651L333.654 1.76001H376.668C385.405 1.76001 389.149 4.64666 387.901 10.4199C386.721 16.1932 380.786 24.0703 370.097 34.0513C362.972 40.7052 355.846 46.3317 348.72 50.9308C341.766 55.432 335.531 58.5143 330.015 60.1778L329.386 60.765C333.254 60.765 334.545 62.3306 333.259 65.4619C332.145 68.4953 328.287 73.0943 321.685 79.259L277.359 120.651H258.553L305.708 76.617H272.297L225.142 120.651H206.336ZM298.075 52.5453H321.083C324.551 52.5453 328.475 51.3711 332.858 49.0227C337.24 46.6742 341.684 43.3962 346.19 39.1885C350.801 34.883 353.377 31.605 353.92 29.3544C354.568 27.0059 353.158 25.8317 349.69 25.8317H326.682L298.075 52.5453Z" fill="black"/>
<path d="M152.125 122.412C144.856 122.412 140.183 120.797 138.106 117.568C136.2 114.241 137.381 109.153 141.648 102.303C145.983 95.4536 153.966 86.598 165.597 75.7364L244.817 1.76001H264.024L189.519 71.333C181.136 79.1612 175.935 85.3259 173.915 89.8271C171.896 94.3283 174.021 96.5789 180.289 96.5789C186.758 96.5789 193.894 94.1815 201.696 89.3868C209.565 84.592 217.324 78.623 224.973 71.4798L299.635 1.76001H318.442L238.907 76.0299C222.246 91.5884 206.475 103.233 191.594 110.963C176.818 118.596 163.662 122.412 152.125 122.412Z" fill="black"/>
<path d="M82.542 120.651H64.1359L165.676 25.8317H140.268L166.046 1.76001H235.269L209.491 25.8317H184.082L82.542 120.651Z" fill="black"/>
</svg>
