<svg width="85" height="18" viewBox="0 0 85 18" fill="none" xmlns="http://www.w3.org/2000/svg">
<path d="M39.6328 0C41.6245 6.11191e-05 43.2723 0.50394 44.5762 1.51172C45.8882 2.51972 46.8005 3.87608 47.3125 5.58008L44.7686 6.26367C44.4326 5.05587 43.8326 4.10786 42.9688 3.41992C42.1128 2.73198 41.0006 2.38776 39.6328 2.3877C38.4088 2.3877 37.3883 2.66382 36.5723 3.21582C35.7563 3.76782 35.1406 4.54024 34.7246 5.53223C34.3166 6.5242 34.1123 7.68006 34.1123 9C34.1043 10.32 34.3049 11.4758 34.7129 12.4678C35.1289 13.4598 35.7445 14.2322 36.5605 14.7842C37.3845 15.3361 38.4089 15.6123 39.6328 15.6123C41.0006 15.6122 42.1128 15.268 42.9688 14.5801C43.8326 13.8841 44.4326 12.9361 44.7686 11.7363L47.3125 12.4199C46.8005 14.1239 45.8882 15.4803 44.5762 16.4883C43.2723 17.4961 41.6245 17.9999 39.6328 18C37.9049 18 36.4327 17.624 35.2168 16.8721C34.0009 16.1121 33.0689 15.056 32.4209 13.7041C31.7809 12.3521 31.4609 10.784 31.4609 9C31.4609 7.216 31.7809 5.6479 32.4209 4.2959C33.0689 2.94402 34.0009 1.8916 35.2168 1.13965C36.4327 0.379819 37.905 0 39.6328 0Z" fill="white"/>
<path fill-rule="evenodd" clip-rule="evenodd" d="M24.9844 0.360352C25.1523 0.360363 25.3606 0.368778 25.6084 0.384766C25.8562 0.392779 26.0925 0.416077 26.3164 0.456055C27.2762 0.608073 28.0759 0.936523 28.7158 1.44043C29.3638 1.94443 29.848 2.58063 30.168 3.34863C30.4879 4.11657 30.6484 4.96467 30.6484 5.89258C30.6484 7.26844 30.2957 8.45613 29.5918 9.45605C29.1213 10.1191 28.493 10.6146 27.708 10.9453L30.9717 17.6406H28.1035L25.0977 11.4365H20.5078V17.6406H18V17.6367C16.6941 17.6218 15.5354 17.349 14.5244 16.8125C13.707 16.3689 13.0324 15.785 12.4961 15.0654C11.9594 15.7861 11.2844 16.3697 10.4639 16.8115C9.43187 17.3635 8.23969 17.6396 6.8877 17.6396C5.53582 17.6396 4.33973 17.3635 3.2998 16.8115C2.26797 16.2515 1.45991 15.4716 0.875977 14.4717C0.292073 13.4637 0 12.2798 0 10.9199V0.360352L2.54395 0.348633V10.7881C2.54395 11.5241 2.66803 12.1724 2.91602 12.7324C3.16399 13.2922 3.49623 13.7598 3.91211 14.1357C4.32807 14.5117 4.79177 14.7963 5.30371 14.9883C5.82361 15.1802 6.3518 15.2763 6.8877 15.2764C7.43156 15.2764 7.9598 15.1802 8.47168 14.9883C8.99167 14.7883 9.45998 14.5 9.87598 14.124C10.292 13.748 10.6204 13.2797 10.8604 12.7197C11.1082 12.1598 11.2324 11.5159 11.2324 10.7881V0.360352H13.7764V10.7959L13.7812 11.0674C13.8069 11.6907 13.9226 12.2424 14.1396 12.7324C14.3876 13.2922 14.7199 13.7598 15.1357 14.1357C15.5517 14.5117 16.0163 14.7963 16.5283 14.9883C17.0119 15.1668 17.5026 15.2609 18 15.2734V0.360352H24.9844ZM20.5078 9.06055H24.8877C25.0477 9.06055 25.224 9.05213 25.416 9.03613C25.616 9.02013 25.8045 8.99215 25.9805 8.95215C26.4922 8.83212 26.9039 8.61189 27.2158 8.29199C27.5278 7.96402 27.7517 7.58802 27.8877 7.16406C28.0236 6.7402 28.0918 6.31644 28.0918 5.89258C28.0918 5.46869 28.0236 5.04871 27.8877 4.63281C27.7517 4.20883 27.5278 3.83659 27.2158 3.5166C26.9039 3.18871 26.4922 2.96476 25.9805 2.84473C25.8045 2.79673 25.616 2.76405 25.416 2.74805C25.224 2.73205 25.0477 2.72461 24.8877 2.72461H20.5078V9.06055Z" fill="white"/>
<path d="M51.7402 7.8125H60.3799V0.360352H62.9004V17.6406H60.3799V10.1768H51.7402V17.6406H49.2324V0.360352H51.7402V7.8125Z" fill="white"/>
<path d="M68.2988 17.6406H65.791V0.360352H68.2988V17.6406Z" fill="white"/>
<path d="M82.2344 13.2002V0.360352H84.7783V17.6406H82.2344L73.7266 4.78809V17.6406H71.1826V0.360352H73.7266L82.2344 13.2002Z" fill="white"/>
</svg>
