<svg width="114" height="24" viewBox="0 0 114 24" fill="none" xmlns="http://www.w3.org/2000/svg">
<path d="M53.2936 0C55.9718 8.14922e-05 58.1875 0.67192 59.9408 2.01562C61.7051 3.35963 62.9319 5.1681 63.6203 7.4401L60.1995 8.35156C59.7477 6.74116 58.941 5.47715 57.7794 4.5599C56.6284 3.64264 55.1329 3.18367 53.2936 3.18359C51.6477 3.18359 50.2754 3.55176 49.1781 4.28776C48.0809 5.02376 47.253 6.05366 46.6936 7.3763C46.145 8.69893 45.8703 10.2401 45.8703 12C45.8595 13.76 46.1292 15.301 46.6779 16.6237C47.2372 17.9464 48.0651 18.9762 49.1624 19.7122C50.2703 20.4482 51.6478 20.8164 53.2936 20.8164C55.1329 20.8163 56.6284 20.3574 57.7794 19.4401C58.941 18.5122 59.7477 17.2482 60.1995 15.6484L63.6203 16.5599C62.9319 18.8319 61.7051 20.6404 59.9408 21.9844C58.1875 23.3281 55.9718 23.9999 53.2936 24C50.9702 24 48.9905 23.4986 47.3554 22.4961C45.7204 21.4828 44.4672 20.0746 43.5958 18.2721C42.7352 16.4695 42.305 14.3787 42.305 12C42.305 9.62133 42.7352 7.53053 43.5958 5.72786C44.4672 3.92536 45.7204 2.52214 47.3554 1.51953C48.9905 0.506425 50.9702 0 53.2936 0Z" fill="black"/>
<path fill-rule="evenodd" clip-rule="evenodd" d="M33.5961 0.480469C33.8219 0.480485 34.102 0.491704 34.4352 0.513021C34.7685 0.523706 35.0862 0.554769 35.3872 0.608073C36.6779 0.810764 37.7532 1.2487 38.6137 1.92057C39.485 2.59257 40.1361 3.44084 40.5664 4.46484C40.9966 5.48876 41.2124 6.61956 41.2124 7.85677C41.2124 9.69125 40.7381 11.2748 39.7916 12.6081C39.1589 13.4921 38.3141 14.1529 37.2585 14.5938L41.6471 23.5208H37.7903L33.7484 15.2487H27.5765V23.5208H24.2043V23.5156C22.4483 23.4958 20.8902 23.132 19.5307 22.4167C18.4316 21.8253 17.5245 21.0467 16.8033 20.0872C16.0816 21.0481 15.1739 21.8263 14.0706 22.4154C12.6829 23.1514 11.0798 23.5195 9.26177 23.5195C7.44393 23.5195 5.83556 23.1513 4.43719 22.4154C3.04971 21.6687 1.96312 20.6288 1.17791 19.2956C0.392746 17.9516 0 16.3731 0 14.5599V0.480469L3.4208 0.464844V14.3841C3.42081 15.3654 3.58765 16.2299 3.92112 16.9766C4.25456 17.723 4.70132 18.3464 5.26055 18.8477C5.81988 19.3489 6.44342 19.7284 7.13181 19.9844C7.83092 20.2403 8.54116 20.3684 9.26177 20.3685C9.9931 20.3685 10.7034 20.2403 11.3917 19.9844C12.091 19.7177 12.7207 19.3334 13.2801 18.832C13.8395 18.3307 14.281 17.7063 14.6037 16.9596C14.9371 16.2131 15.104 15.3545 15.1041 14.3841V0.480469H18.5249V14.3945L18.5314 14.7565C18.5659 15.5876 18.7215 16.3232 19.0134 16.9766C19.3467 17.7229 19.7937 18.3464 20.3528 18.8477C20.9122 19.349 21.5369 19.7284 22.2254 19.9844C22.8756 20.2224 23.5354 20.3479 24.2043 20.3646V0.480469H33.5961ZM27.5765 12.0807H33.4661C33.6812 12.0807 33.9183 12.0695 34.1765 12.0482C34.4454 12.0268 34.6989 11.9895 34.9355 11.9362C35.6237 11.7762 36.1773 11.4825 36.5967 11.056C37.0161 10.6187 37.3173 10.1174 37.5001 9.55208C37.6829 8.98693 37.7745 8.42193 37.7746 7.85677C37.7746 7.29158 37.6829 6.73161 37.5001 6.17708C37.3173 5.61177 37.0162 5.11546 36.5967 4.6888C36.1773 4.25162 35.6237 3.95301 34.9355 3.79297C34.6988 3.72897 34.4454 3.6854 34.1765 3.66406C33.9183 3.64273 33.6812 3.63281 33.4661 3.63281H27.5765V12.0807Z" fill="black"/>
<path d="M69.5742 10.4167H81.1918V0.480469H84.5811V23.5208H81.1918V13.569H69.5742V23.5208H66.202V0.480469H69.5742V10.4167Z" fill="black"/>
<path d="M91.8403 23.5208H88.4681V0.480469H91.8403V23.5208Z" fill="black"/>
<path d="M110.579 17.6003V0.480469H114V23.5208H110.579L99.1389 6.38411V23.5208H95.7181V0.480469H99.1389L110.579 17.6003Z" fill="black"/>
</svg>
