<svg width="1392" height="193" viewBox="0 0 1392 193" fill="none" xmlns="http://www.w3.org/2000/svg">
<path d="M1321.58 105.477C1322.46 100.988 1323.65 96.874 1325.17 93.1337C1326.81 89.2687 1328.84 85.5908 1331.28 82.0998C1333.75 78.4842 1336.73 74.9309 1340.22 71.4399L1348.97 62.4632C1352.82 58.4735 1355.76 55.1696 1357.76 52.5514C1359.79 49.8085 1361.23 46.2552 1362.08 41.8915C1362.91 37.6525 1362.37 34.2862 1360.48 31.7926C1358.68 29.2991 1355.84 28.0523 1351.97 28.0523C1348.09 28.0523 1344.6 29.4861 1341.49 32.3537C1338.47 35.2212 1336 39.772 1334.08 46.0058H1309.79C1313.96 30.9199 1320.14 19.5119 1328.33 11.782C1336.55 3.92733 1346.25 0 1357.43 0C1364.73 0 1370.79 1.68314 1375.59 5.04941C1380.5 8.29101 1383.86 12.9664 1385.67 19.0756C1387.56 25.1848 1387.68 32.4784 1386.03 40.9564C1384.52 48.6864 1382.16 55.1696 1378.94 60.406C1375.84 65.5178 1371.38 71.0036 1365.57 76.8634L1354.41 88.0843C1350.49 91.9493 1347.77 95.0662 1346.26 97.4351C1344.76 99.6793 1343.62 102.36 1342.84 105.477H1321.58ZM1322.45 155.971C1318.67 155.971 1315.81 154.163 1313.87 150.547C1312.05 146.807 1311.65 142.256 1312.7 136.895C1313.74 131.534 1315.89 127.046 1319.15 123.43C1322.52 119.69 1326.09 117.82 1329.88 117.82C1333.66 117.82 1336.47 119.69 1338.29 123.43C1340.23 127.046 1340.68 131.534 1339.63 136.895C1338.59 142.256 1336.38 146.807 1333.01 150.547C1329.76 154.163 1326.24 155.971 1322.45 155.971Z" fill="white"/>
<path d="M1237.1 155.971C1222.49 155.971 1211.7 151.483 1204.73 142.506C1197.87 133.404 1195.63 120.75 1197.99 104.542H1223.34C1222.78 112.396 1224.19 118.256 1227.58 122.121C1230.96 125.986 1236.26 127.919 1243.48 127.919C1250 127.919 1255.1 126.547 1258.81 123.804C1262.62 120.937 1265.07 116.698 1266.17 111.087C1267.02 106.724 1266.66 103.357 1265.09 100.988C1263.64 98.4948 1260.76 96.5623 1256.45 95.1909L1235.18 88.4583C1225.58 85.3414 1218.99 80.292 1215.42 73.3101C1211.85 66.3282 1211.17 57.1644 1213.38 45.8188C1216.17 31.4809 1222.18 20.26 1231.42 12.156C1240.74 4.052 1252.05 0 1265.34 0C1278.72 0 1288.67 4.23902 1295.21 12.7171C1301.75 21.1951 1303.98 33.0394 1301.9 48.25H1276.55C1276.85 34.0368 1270.88 26.9302 1258.64 26.9302C1253.28 26.9302 1248.78 28.3017 1245.17 31.0446C1241.58 33.6628 1239.3 37.4654 1238.33 42.4525C1236.87 49.9331 1239.71 54.7955 1246.84 57.0397L1269.13 63.9593C1279.18 67.0762 1285.93 72.188 1289.38 79.2946C1292.84 86.4012 1293.38 96.0636 1291.01 108.282C1288.07 123.368 1281.92 135.088 1272.54 143.441C1263.26 151.794 1251.45 155.971 1237.1 155.971Z" fill="white"/>
<path d="M1172.86 153.728H1146.58L1113.46 54.6097H1112.93L1093.64 153.728H1069.87L1099.35 2.24536H1124.57L1158.21 104.169H1158.74L1178.57 2.24536H1202.34L1172.86 153.728Z" fill="white"/>
<path d="M998.151 155.971C987.148 155.971 978.128 152.792 971.092 146.433C964.167 139.95 959.545 130.911 957.224 119.316C954.927 107.596 955.32 93.8194 958.401 77.9855C961.507 62.0268 966.476 48.25 973.31 36.655C980.168 24.9354 988.308 15.8963 997.732 9.53778C1007.24 3.17926 1017.5 0 1028.5 0C1039.59 0 1048.61 3.17926 1055.56 9.53778C1062.62 15.7716 1067.26 24.7484 1069.47 36.468C1071.79 48.063 1071.38 61.9021 1068.25 77.9855C1065.17 93.8194 1060.2 107.596 1053.34 119.316C1046.49 131.036 1038.3 140.075 1028.79 146.433C1019.37 152.792 1009.15 155.971 998.151 155.971ZM1004.25 125.3C1013.85 125.3 1022.08 120.999 1028.94 112.396C1035.81 103.794 1040.64 92.3233 1043.43 77.9855C1046.24 63.5229 1045.88 52.0526 1042.34 43.5746C1038.82 34.9719 1032.22 30.6705 1022.53 30.6705C1012.94 30.6705 1004.67 34.9719 997.71 43.5746C990.867 52.0526 986.05 63.4606 983.26 77.7985C980.445 92.261 980.798 103.794 984.317 112.396C987.924 120.999 994.569 125.3 1004.25 125.3Z" fill="white"/>
<path d="M901.706 153.728L931.185 2.24536H956.007L926.528 153.728H901.706Z" fill="white"/>
<path d="M853.718 153.728H829.424L852.934 32.9159H819.398L825.366 2.24536H916.733L910.765 32.9159H877.228L853.718 153.728Z" fill="white"/>
<path d="M747.39 155.971C732.779 155.971 721.989 151.483 715.022 142.506C708.167 133.404 705.92 120.75 708.282 104.542H733.633C733.072 112.396 734.485 118.256 737.869 122.121C741.254 125.986 746.556 127.919 753.774 127.919C760.287 127.919 765.395 126.547 769.098 123.804C772.913 120.937 775.366 116.698 776.458 111.087C777.307 106.724 776.95 103.357 775.386 100.988C773.935 98.4948 771.054 96.5623 766.744 95.1909L745.477 88.4583C735.873 85.3414 729.285 80.292 725.715 73.3101C722.144 66.3282 721.463 57.1644 723.671 45.8188C726.461 31.4809 732.473 20.26 741.708 12.156C751.031 4.052 762.338 0 775.63 0C789.009 0 798.967 4.23902 805.503 12.7171C812.039 21.1951 814.268 33.0394 812.188 48.25H786.838C787.139 34.0368 781.172 26.9302 768.937 26.9302C763.567 26.9302 759.075 28.3017 755.461 31.0446C751.871 33.6628 749.59 37.4654 748.62 42.4525C747.164 49.9331 750.003 54.7955 757.136 57.0397L779.423 63.9593C789.467 67.0762 796.219 72.188 799.677 79.2946C803.135 86.4012 803.676 96.0636 801.298 108.282C798.362 123.368 792.208 135.088 782.837 143.441C773.554 151.794 761.738 155.971 747.39 155.971Z" fill="white"/>
<path d="M687.081 153.728H607.861L637.34 2.24536H716.56L710.591 32.9159H656.194L650.88 60.2202H700.525L694.702 90.1427H645.057L638.652 123.057H693.05L687.081 153.728Z" fill="white"/>
<path d="M538.362 155.972C528.767 155.972 520.718 153.915 514.212 149.801C507.819 145.562 503.448 139.078 501.097 130.351C498.834 121.624 499.05 110.34 501.743 96.5012L520.085 2.24536H545.435L528.185 90.8907C526.244 100.865 526.564 108.72 529.145 114.455C531.726 120.19 537.153 123.057 545.427 123.057C553.965 123.057 560.589 120.003 565.299 113.894C570.097 107.784 573.381 100.179 575.152 91.0777L592.439 2.24536H617.261L598.846 96.8752C594.989 116.699 587.744 131.535 577.113 141.385C566.507 151.11 553.59 155.972 538.362 155.972Z" fill="white"/>
<path d="M420.39 193C414.141 193 409.736 190.756 407.177 186.267C404.681 181.904 404.319 175.171 406.09 166.07L408.419 154.101C399.99 151.732 393.186 147.119 388.006 140.262C382.915 133.404 379.672 124.739 378.277 114.266C376.907 103.669 377.544 91.5753 380.188 77.9855C383.294 62.0268 388.263 48.25 395.097 36.655C401.955 24.9354 410.095 15.8963 419.519 9.53778C429.03 3.17926 439.287 0 450.29 0C461.381 0 470.401 3.17926 477.349 9.53778C484.41 15.7716 489.045 24.7484 491.253 36.468C493.574 48.063 493.17 61.9021 490.04 77.9855C487.395 91.5753 483.325 103.669 477.83 114.266C472.335 124.864 465.708 133.591 457.947 140.449C450.212 147.181 441.624 151.732 432.185 154.101L430.074 164.948H457.537L452.078 193H420.39ZM425.907 125.3C435.589 125.3 443.864 120.999 450.731 112.396C457.599 103.794 462.427 92.3233 465.218 77.9855C468.032 63.5229 467.667 52.0526 464.124 43.5746C460.605 34.9719 454.004 30.6705 444.322 30.6705C434.727 30.6705 426.452 34.9719 419.497 43.5746C412.654 52.0526 407.825 63.5229 405.01 77.9855C402.22 92.3233 402.585 103.794 406.104 112.396C409.711 120.999 416.312 125.3 425.907 125.3Z" fill="white"/>
<path d="M286.027 153.728H261.733L285.243 32.9159H251.706L257.675 2.24536H349.042L343.073 32.9159H309.537L286.027 153.728Z" fill="white"/>
<path d="M171.757 155.971C160.755 155.971 151.735 152.792 144.698 146.433C137.774 139.95 133.151 130.911 130.83 119.316C128.534 107.596 128.926 93.8194 132.008 77.9855C135.113 62.0268 140.083 48.25 146.916 36.655C153.774 24.9354 161.915 15.8963 171.338 9.53778C180.85 3.17926 191.107 0 202.109 0C213.2 0 222.22 3.17926 229.169 9.53778C236.23 15.7716 240.864 24.7484 243.073 36.468C245.394 48.063 244.989 61.9021 241.859 77.9855C238.778 93.8194 233.808 107.596 226.951 119.316C220.093 131.036 211.908 140.075 202.397 146.433C192.973 152.792 182.76 155.971 171.757 155.971ZM177.858 125.3C187.452 125.3 195.683 120.999 202.551 112.396C209.418 103.794 214.247 92.3233 217.037 77.9855C219.851 63.5229 219.487 52.0526 215.943 43.5746C212.424 34.9719 205.823 30.6705 196.141 30.6705C186.546 30.6705 178.272 34.9719 171.316 43.5746C164.473 52.0526 159.656 63.4606 156.866 77.7985C154.052 92.261 154.404 103.794 157.923 112.396C161.531 120.999 168.175 125.3 177.858 125.3Z" fill="white"/>
<path d="M50.6828 155.971C40.2961 155.971 31.7727 152.729 25.1123 146.246C18.4762 139.638 14.0539 130.474 11.8454 118.755C9.72499 107.035 10.1569 93.5078 13.1411 78.1725C16.1982 62.4632 21.1556 48.7487 28.0134 37.0291C34.8712 25.3094 43.0679 16.208 52.6036 9.7248C62.2274 3.2416 72.5406 0 83.5434 0C92.6096 0 100.183 2.24418 106.263 6.73255C112.368 11.0963 116.82 17.3924 119.62 25.6211C122.42 33.8498 123.276 43.6993 122.188 55.1696H96.3093C96.909 47.5643 95.5528 41.6421 92.2407 37.4031C88.9286 33.1641 84.0157 31.0446 77.5021 31.0446C71.3405 31.0446 65.5951 32.9771 60.2659 36.842C54.9366 40.707 50.3482 46.1928 46.5006 53.2994C42.653 60.406 39.783 68.8217 37.8906 78.5465C35.9739 88.396 35.5882 96.9364 36.7337 104.168C37.8791 111.399 40.3962 117.009 44.285 120.999C48.198 124.864 53.3233 126.797 59.6609 126.797C64.3261 126.797 68.6572 125.799 72.6543 123.804C76.7637 121.685 80.2143 118.88 83.0062 115.389C85.8224 111.773 87.6671 107.721 88.5406 103.233L89.414 98.7442H63.1394L68.38 71.814H101.52C107.33 71.814 111.299 73.8088 113.427 77.7985C115.58 81.6634 115.892 87.5233 114.363 95.3779L103.008 153.727H80.2988L83.4286 137.643H82.7685C79.027 143.753 74.4763 148.366 69.1166 151.483C63.7811 154.475 57.6365 155.971 50.6828 155.971Z" fill="white"/>
</svg>
