<svg width="16" height="16" viewBox="0 0 16 16" fill="none" xmlns="http://www.w3.org/2000/svg">
<path d="M0 8C0 3.58172 3.58172 0 8 0C12.4183 0 16 3.58172 16 8C16 12.4183 12.4183 16 8 16C3.58172 16 0 12.4183 0 8Z" fill="#FFDA54"/>
<path d="M8.50195 10.8092V5H11.2201C11.8703 5 12.3747 5.16256 12.7333 5.48769C13.0919 5.81281 13.2712 6.25985 13.2712 6.82882C13.2712 7.393 13.0895 7.84005 12.7262 8.16996C12.3676 8.49508 11.8655 8.65764 11.2201 8.65764H9.59925V10.8092H8.50195ZM9.59925 7.71813H11.1555C11.4902 7.71813 11.7436 7.63924 11.9158 7.48146C12.0927 7.32368 12.1811 7.10613 12.1811 6.82882C12.1811 6.55151 12.0927 6.33396 11.9158 6.17618C11.7436 6.0184 11.4902 5.93951 11.1555 5.93951H9.59925V7.71813Z" fill="#352A00"/>
<path d="M5.59001 10.9813C4.82023 10.9813 4.20585 10.814 3.74685 10.4793C3.29263 10.1398 3.04401 9.67126 3.00098 9.07361H4.12696C4.16521 9.40829 4.31103 9.6617 4.56444 9.83382C4.82262 10.0059 5.17883 10.092 5.63304 10.092C6.03467 10.092 6.33827 10.0251 6.54387 9.8912C6.75424 9.75254 6.85943 9.55173 6.85943 9.28876C6.85943 9.08317 6.7901 8.91822 6.65144 8.79391C6.51757 8.66959 6.30481 8.57636 6.01315 8.5142L4.83697 8.27753C4.31103 8.16756 3.91419 7.9811 3.64644 7.71813C3.38347 7.45516 3.25199 7.11569 3.25199 6.69973C3.25199 6.17379 3.45041 5.76022 3.84725 5.459C4.2441 5.153 4.78677 5 5.47526 5C6.16854 5 6.72794 5.16017 7.15347 5.48051C7.58378 5.79607 7.82763 6.23595 7.885 6.80013H6.75902C6.61559 6.17857 6.16615 5.86779 5.41072 5.86779C5.07125 5.86779 4.8035 5.93234 4.60747 6.06143C4.41622 6.18574 4.3206 6.36504 4.3206 6.59932C4.3206 6.96748 4.58356 7.20415 5.1095 7.30933L6.32871 7.56035C6.87377 7.67032 7.27539 7.86157 7.53358 8.1341C7.79655 8.40184 7.92803 8.75805 7.92803 9.2027C7.92803 9.7621 7.72244 10.1996 7.31125 10.5151C6.90485 10.8259 6.3311 10.9813 5.59001 10.9813Z" fill="#352A00"/>
</svg>
