<svg width="131" height="40" viewBox="0 0 131 40" fill="none" xmlns="http://www.w3.org/2000/svg">
<path d="M20 0L22.6128 12.8214L32.8558 4.67911L26.6158 16.1803L39.6962 16.527L27.5233 21.3266L37.3205 30L24.9105 25.8521L26.8404 38.7939L20 27.6393L13.1596 38.7939L15.0895 25.8521L2.67949 30L12.4767 21.3266L0.303844 16.527L13.3842 16.1803L7.14425 4.67911L17.3872 12.8214L20 0Z" fill="#FFD955"/>
<path d="M85.6328 11C87.6245 11.0001 89.2723 11.5039 90.5762 12.5117C91.8882 13.5197 92.8005 14.8761 93.3125 16.5801L90.7686 17.2637C90.4326 16.0559 89.8326 15.1079 88.9688 14.4199C88.1128 13.732 87.0006 13.3878 85.6328 13.3877C84.4088 13.3877 83.3883 13.6638 82.5723 14.2158C81.7563 14.7678 81.1406 15.5402 80.7246 16.5322C80.3166 17.5242 80.1123 18.6801 80.1123 20C80.1043 21.32 80.3049 22.4758 80.7129 23.4678C81.1289 24.4598 81.7445 25.2322 82.5605 25.7842C83.3845 26.3361 84.4089 26.6123 85.6328 26.6123C87.0006 26.6122 88.1128 26.268 88.9688 25.5801C89.8326 24.8841 90.4326 23.9361 90.7686 22.7363L93.3125 23.4199C92.8005 25.1239 91.8882 26.4803 90.5762 27.4883C89.2723 28.4961 87.6245 28.9999 85.6328 29C83.9049 29 82.4327 28.624 81.2168 27.8721C80.0009 27.1121 79.0689 26.056 78.4209 24.7041C77.7809 23.3521 77.4609 21.784 77.4609 20C77.4609 18.216 77.7809 16.6479 78.4209 15.2959C79.0689 13.944 80.0009 12.8916 81.2168 12.1396C82.4327 11.3798 83.905 11 85.6328 11Z" fill="white"/>
<path fill-rule="evenodd" clip-rule="evenodd" d="M70.9844 11.3604C71.1523 11.3604 71.3606 11.3688 71.6084 11.3848C71.8562 11.3928 72.0925 11.4161 72.3164 11.4561C73.2762 11.6081 74.0759 11.9365 74.7158 12.4404C75.3638 12.9444 75.848 13.5806 76.168 14.3486C76.4879 15.1166 76.6484 15.9647 76.6484 16.8926C76.6484 18.2684 76.2957 19.4561 75.5918 20.4561C75.1213 21.1191 74.493 21.6146 73.708 21.9453L76.9717 28.6406H74.1035L71.0977 22.4365H66.5078V28.6406H64V28.6367C62.6941 28.6218 61.5354 28.349 60.5244 27.8125C59.707 27.3689 59.0324 26.785 58.4961 26.0654C57.9594 26.7861 57.2844 27.3697 56.4639 27.8115C55.4319 28.3635 54.2397 28.6396 52.8877 28.6396C51.5358 28.6396 50.3397 28.3635 49.2998 27.8115C48.268 27.2515 47.4599 26.4716 46.876 25.4717C46.2921 24.4637 46 23.2798 46 21.9199V11.3604L48.5439 11.3486V21.7881C48.544 22.5241 48.668 23.1724 48.916 23.7324C49.164 24.2922 49.4962 24.7598 49.9121 25.1357C50.3281 25.5117 50.7918 25.7963 51.3037 25.9883C51.8236 26.1802 52.3518 26.2763 52.8877 26.2764C53.4316 26.2764 53.9598 26.1802 54.4717 25.9883C54.9917 25.7883 55.46 25.5 55.876 25.124C56.292 24.748 56.6204 24.2797 56.8604 23.7197C57.1082 23.1598 57.2324 22.5159 57.2324 21.7881V11.3604H59.7764V21.7959L59.7812 22.0674C59.8069 22.6907 59.9226 23.2424 60.1396 23.7324C60.3876 24.2922 60.7199 24.7598 61.1357 25.1357C61.5517 25.5117 62.0163 25.7963 62.5283 25.9883C63.0119 26.1668 63.5026 26.2609 64 26.2734V11.3604H70.9844ZM66.5078 20.0605H70.8877C71.0477 20.0605 71.224 20.0521 71.416 20.0361C71.616 20.0201 71.8045 19.9921 71.9805 19.9521C72.4922 19.8321 72.9039 19.6119 73.2158 19.292C73.5278 18.964 73.7517 18.588 73.8877 18.1641C74.0236 17.7402 74.0918 17.3164 74.0918 16.8926C74.0918 16.4687 74.0236 16.0487 73.8877 15.6328C73.7517 15.2088 73.5278 14.8366 73.2158 14.5166C72.9039 14.1887 72.4922 13.9648 71.9805 13.8447C71.8045 13.7967 71.616 13.764 71.416 13.748C71.224 13.732 71.0477 13.7246 70.8877 13.7246H66.5078V20.0605Z" fill="white"/>
<path d="M97.7402 18.8125H106.38V11.3604H108.9V28.6406H106.38V21.1768H97.7402V28.6406H95.2324V11.3604H97.7402V18.8125Z" fill="white"/>
<path d="M114.299 28.6406H111.791V11.3604H114.299V28.6406Z" fill="white"/>
<path d="M128.234 24.2002V11.3604H130.778V28.6406H128.234L119.727 15.7881V28.6406H117.183V11.3604H119.727L128.234 24.2002Z" fill="white"/>
</svg>
