<svg width="28" height="28" viewBox="0 0 28 28" fill="none" xmlns="http://www.w3.org/2000/svg">
<path d="M22.9444 5.85426C22.9372 5.84041 22.9254 5.82956 22.9109 5.82364C21.2434 5.05854 19.4836 4.51296 17.6757 4.20056C17.6592 4.1975 17.6423 4.19971 17.6272 4.20685C17.6121 4.214 17.5996 4.22572 17.5915 4.24036C17.3519 4.67528 17.1344 5.12202 16.9398 5.57886C14.9909 5.28303 13.0086 5.28303 11.0597 5.57886C10.8639 5.12086 10.6428 4.67401 10.3977 4.24036C10.3893 4.22604 10.3768 4.21459 10.3618 4.20749C10.3468 4.20039 10.33 4.19797 10.3136 4.20056C8.50543 4.5123 6.74554 5.05792 5.07818 5.82369C5.0639 5.82974 5.05186 5.84007 5.04371 5.85326C1.70931 10.8327 0.79589 15.6898 1.24398 20.4867C1.24524 20.4985 1.24885 20.5098 1.2546 20.5202C1.26035 20.5305 1.26812 20.5396 1.27744 20.5468C3.21903 21.9844 5.39073 23.0818 7.69984 23.792C7.7161 23.7969 7.73347 23.7967 7.7496 23.7914C7.76574 23.7861 7.77986 23.776 7.79008 23.7624C8.28603 23.0876 8.72548 22.3731 9.10396 21.626C9.10916 21.6158 9.11213 21.6045 9.11267 21.593C9.11321 21.5816 9.11131 21.5701 9.1071 21.5594C9.10289 21.5487 9.09646 21.539 9.08824 21.531C9.08001 21.5229 9.07018 21.5168 9.05938 21.5128C8.36641 21.2477 7.69553 20.928 7.05303 20.5569C7.04136 20.55 7.03156 20.5404 7.02449 20.5289C7.01742 20.5173 7.01331 20.5042 7.01251 20.4907C7.01171 20.4772 7.01425 20.4637 7.01991 20.4514C7.02556 20.4391 7.03416 20.4284 7.04494 20.4202C7.17975 20.3192 7.31465 20.2141 7.44339 20.108C7.45482 20.0986 7.46866 20.0925 7.48335 20.0905C7.49803 20.0886 7.51297 20.0907 7.52649 20.0968C11.7357 22.0178 16.2928 22.0178 20.4522 20.0968C20.4658 20.0903 20.4809 20.0879 20.4958 20.0897C20.5107 20.0915 20.5247 20.0975 20.5364 20.107C20.6651 20.2131 20.8 20.3192 20.9358 20.4202C20.9467 20.4283 20.9553 20.4389 20.9611 20.4512C20.9668 20.4634 20.9695 20.4769 20.9688 20.4904C20.9681 20.5039 20.964 20.5171 20.9571 20.5287C20.9501 20.5403 20.9404 20.55 20.9287 20.5569C20.2877 20.9311 19.6162 21.2506 18.9214 21.5118C18.9106 21.5159 18.9008 21.5222 18.8927 21.5304C18.8845 21.5385 18.8781 21.5483 18.874 21.5591C18.8699 21.5699 18.8681 21.5814 18.8687 21.593C18.8693 21.6045 18.8724 21.6157 18.8777 21.626C19.2625 22.3689 19.7013 23.0826 20.1906 23.7613C20.2005 23.7752 20.2145 23.7856 20.2307 23.7911C20.2469 23.7966 20.2644 23.7969 20.2808 23.7919C22.594 23.0841 24.7695 21.9866 26.7136 20.5468C26.723 20.5399 26.7309 20.5311 26.7367 20.5209C26.7424 20.5107 26.746 20.4994 26.747 20.4877C27.2835 14.942 25.8489 10.1247 22.9444 5.85426ZM9.73257 17.5659C8.46528 17.5659 7.42108 16.4029 7.42108 14.9747C7.42108 13.5464 8.44503 12.3833 9.73257 12.3833C11.0302 12.3833 12.0643 13.5565 12.044 14.9746C12.044 16.4029 11.02 17.5659 9.73257 17.5659ZM18.2789 17.5659C17.0116 17.5659 15.9674 16.4029 15.9674 14.9747C15.9674 13.5464 16.9914 12.3833 18.2789 12.3833C19.5765 12.3833 20.6106 13.5565 20.5904 14.9746C20.5904 16.4029 19.5765 17.5659 18.2789 17.5659Z" fill="white"/>
</svg>
