<svg width="28" height="28" viewBox="0 0 28 28" fill="none" xmlns="http://www.w3.org/2000/svg">
<path d="M17.497 2.33203H6.99891C6.38019 2.33203 5.78681 2.57782 5.34931 3.01532C4.9118 3.45283 4.66602 4.04621 4.66602 4.66493V23.3281C4.66602 23.9469 4.9118 24.5402 5.34931 24.9777C5.78681 25.4152 6.38019 25.661 6.99891 25.661H20.9963C21.615 25.661 22.2084 25.4152 22.6459 24.9777C23.0834 24.5402 23.3292 23.9469 23.3292 23.3281V8.16428L17.497 2.33203Z" stroke="white" stroke-width="2.3329" stroke-linecap="round" stroke-linejoin="round"/>
<path d="M16.3301 2.33203V6.99783C16.3301 7.61655 16.5759 8.20994 17.0134 8.64744C17.4509 9.08494 18.0443 9.33073 18.663 9.33073H23.3288" stroke="white" stroke-width="2.3329" stroke-linecap="round" stroke-linejoin="round"/>
<path d="M11.6649 10.498H9.33203" stroke="white" stroke-width="2.3329" stroke-linecap="round" stroke-linejoin="round"/>
<path d="M18.6636 15.1641H9.33203" stroke="white" stroke-width="2.3329" stroke-linecap="round" stroke-linejoin="round"/>
<path d="M18.6627 19.8301H9.33105" stroke="white" stroke-width="2.3329" stroke-linecap="round" stroke-linejoin="round"/>
</svg>
