<svg width="28" height="28" viewBox="0 0 28 28" fill="none" xmlns="http://www.w3.org/2000/svg">
<g clip-path="url(#clip0_227_5840)">
<path d="M7.89541 6.04688C3.53491 6.04688 0 9.60619 0 13.9964C0 18.3867 3.53517 21.946 7.89541 21.946C12.2556 21.946 15.7908 18.3869 15.7908 13.9964C15.7908 9.60593 12.2561 6.04688 7.89541 6.04688ZM20.504 6.51255C18.3237 6.51255 16.5565 9.86401 16.5565 13.9966C16.5565 18.1291 18.3239 21.4808 20.5043 21.4808C22.6846 21.4808 24.452 18.1293 24.452 13.9966H24.4517C24.4517 9.86283 22.6845 6.51255 20.5041 6.51255H20.504ZM26.6063 7.29207C25.8396 7.29207 25.2181 10.294 25.2181 13.9966C25.2181 17.6991 25.8392 20.7011 26.6063 20.7011C27.3733 20.7011 27.9948 17.6984 27.9948 13.9964C27.9948 10.2937 27.373 7.29207 26.6063 7.29207H26.6063Z" fill="white"/>
</g>
<defs>
<clipPath id="clip0_227_5840">
<rect width="27.9948" height="27.9948" fill="white"/>
</clipPath>
</defs>
</svg>
