<svg width="28" height="28" viewBox="0 0 28 28" fill="none" xmlns="http://www.w3.org/2000/svg">
<g clip-path="url(#clip0_227_5811)">
<path d="M13.9975 0.4375C6.50849 0.4375 0.4375 6.50849 0.4375 13.9975C0.4375 21.4865 6.50849 27.5575 13.9975 27.5575C21.4865 27.5575 27.5575 21.4865 27.5575 13.9975C27.5575 6.50849 21.4865 0.4375 13.9975 0.4375ZM20.2827 9.65938C20.0787 11.8035 19.1957 17.0068 18.7463 19.4083C18.5563 20.4245 18.1819 20.7652 17.8196 20.7985C17.0323 20.871 16.4342 20.2782 15.6715 19.7782C14.4781 18.9959 13.8039 18.5089 12.6454 17.7454C11.3066 16.8632 12.1745 16.3785 12.9374 15.5857C13.1371 15.3783 16.6067 12.2225 16.6738 11.9362C16.6822 11.9004 16.6902 11.7667 16.6107 11.6965C16.5312 11.6263 16.4144 11.6501 16.33 11.6692C16.2103 11.6963 14.3037 12.9565 10.6103 15.4497C10.0691 15.8212 9.57898 16.0023 9.13978 15.9928C8.65561 15.9824 7.72429 15.7191 7.03191 15.494C6.18272 15.218 5.50778 15.0721 5.56656 14.6032C5.59718 14.359 5.93345 14.1093 6.57536 13.8542C10.5284 12.1319 13.1643 10.9964 14.4832 10.4478C18.249 8.88143 19.0315 8.60935 19.5415 8.60028C19.6537 8.59842 19.9045 8.6262 20.0669 8.75802C20.175 8.85193 20.2439 8.98298 20.2599 9.12524C20.2875 9.30187 20.2951 9.48104 20.2827 9.65938Z" fill="white"/>
</g>
<defs>
<clipPath id="clip0_227_5811">
<rect width="27.9948" height="27.9948" fill="white"/>
</clipPath>
</defs>
</svg>
